<svg width="500" height="58" viewBox="0 0 500 58" xmlns="http://www.w3.org/2000/svg" xmlns:xlink="http://www.w3.org/1999/xlink"><title>simple</title><defs><path id="a" d="M0 57.9h500V0H0z"/></defs><g fill="none" fill-rule="evenodd"><path d="M0 41.19l3.247-5.139c2.3 2.368 6.83 4.6 11.091 4.6 4.26 0 6.425-1.829 6.425-4.396 0-6.427-19.75-1.828-19.75-14.34 0-5.343 4.6-9.942 12.852-9.942 5.546 0 9.74 1.961 12.717 4.6l-2.978 5.005c-1.96-2.236-5.614-3.927-9.673-3.927-3.718 0-6.086 1.691-6.086 3.993 0 5.816 19.75 1.487 19.75 14.474 0 5.75-4.803 10.144-13.595 10.144-5.546 0-10.619-1.757-14-5.072z" fill="#000"/><mask id="b" fill="#fff"><use xlink:href="#a"/></mask><path d="M34.782 45.452h7.102v-32.67h-7.102v32.67zm-.878-41.058C33.904 1.96 35.933 0 38.301 0a4.385 4.385 0 0 1 4.395 4.394 4.39 4.39 0 0 1-4.395 4.401c-2.368 0-4.397-1.966-4.397-4.4zM91.131 45.453V24.145c0-3.514-1.556-5.882-5.342-5.882-3.18 0-6.155 2.23-7.575 4.329v22.86h-7.103V24.146c0-3.514-1.555-5.882-5.41-5.882-3.112 0-6.02 2.23-7.51 4.395v22.795H51.09v-32.67h7.102v4.466c1.355-2.032 5.684-5.275 10.621-5.275 4.87 0 7.846 2.434 8.928 6.019 1.894-2.98 6.223-6.02 11.092-6.02 6.02 0 9.401 3.244 9.401 9.875v23.605h-7.102zM132.153 29.085c0-6.29-3.585-10.822-9.2-10.822-3.313 0-6.832 1.96-8.388 4.395v12.92c1.556 2.368 5.075 4.395 8.388 4.395 5.615 0 9.2-4.533 9.2-10.888M114.565 40.92V57.9h-7.101V12.783h7.101v4.467c2.437-3.25 6.224-5.276 10.484-5.276 8.456 0 14.476 6.355 14.476 17.11 0 10.757-6.02 17.179-14.476 17.179-4.125 0-7.846-1.824-10.484-5.343M146.577 45.453h7.102V.336h-7.102zM177.43 17.789c-6.086 0-8.862 4.665-9.198 8.658h18.397c-.135-3.855-2.773-8.658-9.2-8.658m-16.572 11.296c0-9.467 6.901-17.111 16.572-17.111 9.81 0 16.098 7.506 16.098 17.788v1.69h-25.229c.542 4.936 4.263 8.995 10.417 8.995 3.178 0 6.967-1.283 9.266-3.586l3.247 4.67c-3.247 3.112-8.049 4.732-13.257 4.732-9.808 0-17.114-6.83-17.114-17.178M217.808 44.44c7.983 0 12.378-6.698 12.378-15.29 0-8.59-4.395-15.354-12.378-15.354-5.072 0-9.74 3.183-11.769 6.631v17.52c2.03 3.447 6.697 6.492 11.77 6.492zm-13.799 1.013V.336h2.03V18.4c2.638-3.86 6.901-6.427 11.77-6.427 8.792 0 14.61 6.895 14.61 17.177 0 10.35-5.818 17.112-14.61 17.112-5.142 0-9.537-2.908-11.77-6.289v5.48h-2.03zM268.76 29.085c0-7.914-4.599-15.29-12.987-15.29-8.319 0-12.986 7.376-12.986 15.29 0 7.98 4.667 15.354 12.986 15.354 8.388 0 12.987-7.374 12.987-15.354m-28.204 0c0-9.605 6.02-17.111 15.217-17.111 9.266 0 15.22 7.506 15.22 17.11 0 9.606-5.954 17.179-15.22 17.179-9.197 0-15.217-7.573-15.217-17.178M280.887 45.452h2.029v-32.67h-2.029v32.67zM279.94 5.21c0-1.085.947-1.967 1.964-1.967a1.965 1.965 0 0 1 0 3.927c-1.017 0-1.964-.88-1.964-1.96zM294.557 45.453h2.029V.336h-2.029zM321.756 13.796c-8.388 0-12.783 7.71-12.986 14.138h26.039c0-6.29-4.125-14.138-13.053-14.138M306.47 29.085c0-9.468 6.559-17.112 15.35-17.112 10.014 0 15.153 8.047 15.153 17.112v.677H308.77c.203 7.98 5.41 14.677 13.729 14.677 4.599 0 8.32-1.69 11.364-4.94l1.218 1.289c-3.315 3.447-7.101 5.474-12.582 5.474-9.47 0-16.03-7.237-16.03-17.177M346.869 45.453v-32.67h2.03v5.953c2.907-3.855 6.493-6.56 11.23-6.56v2.435c-.61-.071-1.017-.071-1.625-.071-3.45 0-8.115 3.387-9.605 6.427v24.486h-2.03zM393.619 29.085c0-8.591-4.395-15.29-12.378-15.29-5.072 0-9.74 3.047-11.77 6.495v17.519c2.03 3.453 6.698 6.63 11.77 6.63 7.983 0 12.378-6.762 12.378-15.354M369.472 39.84V57.9h-2.03V12.783h2.03v5.48c2.233-3.382 6.627-6.29 11.769-6.29 8.793 0 14.61 6.763 14.61 17.112 0 10.282-5.817 17.178-14.61 17.178-4.868 0-9.131-2.567-11.77-6.422M405.476 45.453h2.029V.336h-2.029zM440.25 39.433v-8.118c-2.503-3.316-6.493-5.007-10.756-5.007-5.95 0-9.74 3.994-9.74 9.066 0 5.072 3.79 9.065 9.74 9.065 4.263 0 8.253-1.69 10.756-5.006zm0 6.02V41.46c-3.042 3.316-6.696 4.803-11.295 4.803-5.75 0-11.431-3.92-11.431-10.888 0-6.967 5.615-10.888 11.43-10.888 4.6 0 8.254 1.487 11.296 4.802v-7.374c0-5.276-4.193-8.118-9.2-8.118-4.26 0-7.438 1.492-10.484 5.144l-1.555-1.355c3.18-3.717 6.562-5.612 12.039-5.612 6.428 0 11.23 3.244 11.23 9.875v23.605h-2.03zM454.338 39.703V14.61h-5.41v-1.828h5.41V3.855h2.03v8.928h6.628v1.828h-6.628v25.092c0 2.776 1.082 4.736 3.517 4.736 1.62 0 3.042-.815 3.854-1.762l1.218 1.559c-1.286 1.217-2.64 2.027-5.072 2.027-3.79 0-5.547-2.501-5.547-6.56M484.783 13.796c-8.388 0-12.782 7.71-12.986 14.138h26.039c0-6.29-4.125-14.138-13.053-14.138m-15.286 15.289c0-9.468 6.559-17.112 15.352-17.112 10.013 0 15.15 8.047 15.15 17.112v.677h-28.202c.204 7.98 5.41 14.677 13.729 14.677 4.6 0 8.32-1.69 11.365-4.94l1.217 1.289c-3.315 3.447-7.101 5.474-12.582 5.474-9.47 0-16.03-7.237-16.03-17.177" fill="#000" mask="url(#b)"/></g></svg>